<?xml version="1.0" encoding="UTF-8"?>
<!DOCTYPE svg PUBLIC "-//W3C//DTD SVG 1.1//EN" "http://www.w3.org/Graphics/SVG/1.1/DTD/svg11.dtd">
<svg xmlns="http://www.w3.org/2000/svg" xmlns:xlink="http://www.w3.org/1999/xlink" version="1.1" width="424px" height="424px" viewBox="-0.5 -0.5 424 424" class="ge-export-svg-dark"><defs><style type="text/css">svg.ge-export-svg-dark:not(mjx-container &gt; svg) { filter: invert(100%) hue-rotate(180deg); }&#xa;svg.ge-export-svg-dark foreignObject img,&#xa;svg.ge-export-svg-dark image:not(svg.ge-export-svg-dark switch image),&#xa;svg.ge-export-svg-dark svg:not(mjx-container &gt; svg)&#xa;{ filter: invert(100%) hue-rotate(180deg) }</style></defs><g><g><path d="M 66 12 L 358 12 L 412 212 L 358 412 L 66 412 L 12 212 Z" fill="none" stroke="#4f96d8" stroke-width="24" stroke-miterlimit="10" pointer-events="all"/></g><g><rect x="113" y="75" width="199" height="274" fill="none" stroke="none" pointer-events="all"/><path d="M 274.21 218.89 C 276.55 218.89 278.89 217.45 278.89 214.52 L 278.89 196.54 C 278.89 194.03 277.24 191.87 274.15 191.87 L 255.19 191.87 C 252.28 191.87 250.45 193.67 250.45 196.48 L 250.45 214.58 C 250.45 217.09 252.47 218.89 255.12 218.89 Z M 222.07 218.89 C 224.35 218.89 226.75 217.45 226.75 214.52 L 226.75 196.54 C 226.75 194.03 225.04 191.87 222.01 191.87 L 202.99 191.87 C 200.15 191.87 198.25 193.67 198.25 196.48 L 198.25 214.58 C 198.25 217.09 200.34 218.89 202.93 218.89 Z M 169.88 218.89 C 172.15 218.89 174.55 217.45 174.55 214.52 L 174.55 196.54 C 174.55 194.03 172.91 191.87 169.81 191.87 L 150.85 191.87 C 147.95 191.87 146.11 193.67 146.11 196.48 L 146.11 214.58 C 146.11 217.09 148.14 218.89 150.73 218.89 Z M 274.21 263.76 C 276.55 263.76 278.89 262.38 278.89 259.38 L 278.89 241.41 C 278.89 238.96 277.24 236.8 274.15 236.8 L 255.19 236.8 C 252.28 236.8 250.45 238.6 250.45 241.35 L 250.45 259.44 C 250.45 262.02 252.47 263.76 255.12 263.76 Z M 222.07 263.76 C 224.35 263.76 226.75 262.38 226.75 259.38 L 226.75 241.41 C 226.75 238.96 225.04 236.8 222.01 236.8 L 202.99 236.8 C 200.15 236.8 198.25 238.6 198.25 241.35 L 198.25 259.44 C 198.25 262.02 200.34 263.76 202.93 263.76 Z M 169.88 263.76 C 172.15 263.76 174.55 262.38 174.55 259.38 L 174.55 241.41 C 174.55 238.96 172.91 236.8 169.81 236.8 L 150.85 236.8 C 147.95 236.8 146.11 238.6 146.11 241.35 L 146.11 259.44 C 146.11 262.02 148.14 263.76 150.73 263.76 Z M 274.21 308.62 C 276.55 308.62 278.89 307.25 278.89 304.25 L 278.89 286.28 C 278.89 283.82 277.24 281.67 274.15 281.67 L 255.19 281.67 C 252.28 281.67 250.45 283.47 250.45 286.28 L 250.45 304.37 C 250.45 306.89 252.47 308.62 255.12 308.62 Z M 222.07 308.62 C 224.35 308.62 226.75 307.25 226.75 304.25 L 226.75 286.28 C 226.75 283.82 225.04 281.67 222.01 281.67 L 202.99 281.67 C 200.15 281.67 198.25 283.47 198.25 286.28 L 198.25 304.37 C 198.25 306.89 200.34 308.62 202.93 308.62 Z M 169.88 308.62 C 172.15 308.62 174.55 307.25 174.55 304.25 L 174.55 286.28 C 174.55 283.82 172.91 281.67 169.81 281.67 L 150.85 281.67 C 147.95 281.67 146.11 283.47 146.11 286.28 L 146.11 304.37 C 146.11 306.89 148.14 308.62 150.73 308.62 Z M 279.27 155.87 C 283.69 155.87 288.37 151.98 288.37 146.94 L 288.37 106.09 C 288.37 101.48 284.07 97.46 278.95 97.46 L 145.42 97.46 C 141.56 97.46 136.63 101.24 136.63 106.21 L 136.63 147.12 C 136.63 151.8 141.18 155.87 145.8 155.87 Z M 135.75 349 C 123.93 349 113 338.94 113 327.61 L 113 96.86 C 113 84.05 124.56 75 136.19 75 L 288.18 75 C 303.47 75 312 86.8 312 96.75 L 312 327.02 C 312 339.77 300.69 349 289.31 349 Z" fill="#4f96d8" stroke="none" pointer-events="all"/></g></g></svg>